<svg xmlns="http://www.w3.org/2000/svg" viewBox="0 0 423.27 386.72"><defs><style>.cls-1{fill:none;stroke:#231f20;stroke-linecap:round;stroke-linejoin:round;stroke-width:3px;}</style></defs><g id="Layer_2" data-name="Layer 2"><g id="Layer_1-2" data-name="Layer 1"><path d="M84.7,154a7.86,7.86,0,0,1,4.94,1.83,9.3,9.3,0,0,1,3.69,7.49,9.18,9.18,0,0,1-1.74,5.44A9.35,9.35,0,0,1,87,172.21l0,.19,6.2,12.49a.64.64,0,0,1,0,.27.93.93,0,0,1-.87,1,1.19,1.19,0,0,1-.78-.23l-.32-.42L85,172.72h-8.4v12.81a.92.92,0,0,1-.94.65,1,1,0,0,1-.57-.14,1,1,0,0,1-.51-.65V154.71a.88.88,0,0,1,.82-.73Zm0,2H76.57v14.7H84a7.26,7.26,0,0,0,5.7-2.72,7,7,0,0,0,1.65-4.7,7.38,7.38,0,0,0-.59-2.81,7.94,7.94,0,0,0-2.48-3.16A5.72,5.72,0,0,0,84.7,156Z"/><path d="M115,164.4l.14.37v15.06a3.81,3.81,0,0,0,1,2.53,4.82,4.82,0,0,0,2.38,1.56l1.11.19h6.87V164.63a.83.83,0,0,1,.59-.59,2.63,2.63,0,0,1,.49-.1.73.73,0,0,1,.49.19,2.3,2.3,0,0,1,.45.64v20.67a1.12,1.12,0,0,1-.51.64l-.36.1-8.36-.05a6.9,6.9,0,0,1-3.43-1.38,6.45,6.45,0,0,1-2.27-2.9,7.57,7.57,0,0,1-.5-2.72v-14.4a1,1,0,0,1,.56-.69,1.34,1.34,0,0,1,.42-.1A1.14,1.14,0,0,1,115,164.4Z"/><path d="M163,164a1.14,1.14,0,0,1,.65.5l.09.46v3.63a1,1,0,0,1-.48.64,1.41,1.41,0,0,1-.58.14.68.68,0,0,1-.5-.18.9.9,0,0,1-.46-.83v-2.34h-8v19.33a.93.93,0,0,1-.55.69,1.56,1.56,0,0,1-.41.1,1.2,1.2,0,0,1-.72-.26.92.92,0,0,1-.34-.8v-20.4a.74.74,0,0,1,.55-.64l.33,0Z"/><path d="M196,164a5.69,5.69,0,0,1,3.66,1.37,6.9,6.9,0,0,1,2.27,3.31,9.1,9.1,0,0,1,.37,2.71v14a1.12,1.12,0,0,1-.51.64l-.37.1-9.14-.05a5.74,5.74,0,0,1-3.85-2,6,6,0,0,1,4.63-10.06h7.22v-2.42a5.42,5.42,0,0,0-1.43-4.2,4.74,4.74,0,0,0-3.17-1.41h-6.38a1,1,0,0,1-.58-.47,1.41,1.41,0,0,1-.16-.52,1.3,1.3,0,0,1,.23-.75,1.58,1.58,0,0,1,.69-.28Zm4.28,20.07v-8h-7.72a3.82,3.82,0,0,0-3,1.92,4.11,4.11,0,0,0-.6,2.12,3.88,3.88,0,0,0,1,2.59,3.78,3.78,0,0,0,2.44,1.36Z"/><path d="M230.72,154.44l.09.46v27.27a2,2,0,0,0,1.35,1.75,2.9,2.9,0,0,0,1.07.23q.71.09.84.6a2,2,0,0,1,.09.41,1.27,1.27,0,0,1-.13.56,1.47,1.47,0,0,1-.74.46,4.34,4.34,0,0,1-3.63-1.75,5.24,5.24,0,0,1-.87-3.22V154.67a1.05,1.05,0,0,1,.83-.79A1.16,1.16,0,0,1,230.72,154.44Z"/><path d="M32,211.71l.28.37,5.92,26.83.09-.1,5.56-16.67a1,1,0,0,1,.64-.5,1.61,1.61,0,0,1,.92.18l.28.41,5.56,16.68,6-26.87a1,1,0,0,1,1-.56,1,1,0,0,1,.83.69l.05.46-6.76,30.59a1.2,1.2,0,0,1-1.14.56,1.4,1.4,0,0,1-.74-.56l-5.74-17.31-.09,0-5.74,17.32a1,1,0,0,1-1.61.23l-.23-.32-6.8-30.78a1.05,1.05,0,0,1,1.7-.69Z"/><path d="M88.75,226.28a9.06,9.06,0,0,1,.6,3.53c0,.25,0,.64,0,1.2v1.88a.9.9,0,0,1-.41.69l-.46.14H75.94V237a4.74,4.74,0,0,0,1.18,3.49,3.7,3.7,0,0,0,2.7,1.2h8.75a.83.83,0,0,1,.6.45,1.38,1.38,0,0,1,.18.63,1.51,1.51,0,0,1-.09.37c-.15.32-.32.49-.51.52l-.5.1-9-.05a5.69,5.69,0,0,1-3.79-1.88A5.5,5.5,0,0,1,73.92,238v-9.23a6.29,6.29,0,0,1,1.15-3.59,8.54,8.54,0,0,1,3-2.71,7.29,7.29,0,0,1,3.54-.82,7.67,7.67,0,0,1,4,1.1A7.76,7.76,0,0,1,88.75,226.28Zm-1.92.82a5.51,5.51,0,0,0-3.39-3.17,6,6,0,0,0-1.78-.27,5.55,5.55,0,0,0-4.17,1.83,7,7,0,0,0-1.55,4.92c0,.55,0,1,0,1.29h11.3v-2.12A6.11,6.11,0,0,0,86.83,227.1Z"/><path d="M119.9,221.64a5.68,5.68,0,0,1,3.65,1.37,7,7,0,0,1,2.27,3.31,8.79,8.79,0,0,1,.37,2.71v14a1.12,1.12,0,0,1-.51.64l-.36.1-9.15-.05a5.74,5.74,0,0,1-3.85-2,5.88,5.88,0,0,1-1.57-4,5.8,5.8,0,0,1,.83-3,5.87,5.87,0,0,1,5.38-3h7.21v-2.43a5.42,5.42,0,0,0-1.43-4.2,4.73,4.73,0,0,0-3.17-1.41h-6.38a1,1,0,0,1-.58-.47,1.41,1.41,0,0,1-.16-.52,1.3,1.3,0,0,1,.23-.75,1.58,1.58,0,0,1,.69-.28Zm4.27,20.07v-8h-7.72a3.81,3.81,0,0,0-3,1.93,4,4,0,0,0-.6,2.11,3.88,3.88,0,0,0,1,2.59,3.81,3.81,0,0,0,2.44,1.36Z"/><path d="M154.62,212.08l.09.47v9h6a1.14,1.14,0,0,1,.65.52,1.54,1.54,0,0,1,.09.47,1.08,1.08,0,0,1-.69,1h-6V243a1,1,0,0,1-.59.69.76.76,0,0,1-.37.1,1.1,1.1,0,0,1-.53-.14,1.62,1.62,0,0,1-.53-.65V223.61H150a1,1,0,0,1-.6-.53v-.43a1.23,1.23,0,0,1,.28-.87l.46-.19h2.57v-9.32a1.05,1.05,0,0,1,.83-.79A1.14,1.14,0,0,1,154.62,212.08Z"/><path d="M186.45,212.08l.09.37v9.14h7.35a7.1,7.1,0,0,1,5.7,4.51A9.4,9.4,0,0,1,200,229v14c-.09.49-.44.74-1,.74a.77.77,0,0,1-.38-.1c-.41-.12-.61-.53-.61-1.24V227.88a4.68,4.68,0,0,0-1-2.36,4.87,4.87,0,0,0-2.08-1.59,6.34,6.34,0,0,0-2.21-.32h-6.14v19.48a.88.88,0,0,1-.84.69,1.2,1.2,0,0,1-.82-.3c-.24-.2-.36-.72-.36-1.54V212.27a1,1,0,0,1,.52-.65.77.77,0,0,1,.47-.14A1,1,0,0,1,186.45,212.08Z"/><path d="M236.29,226.28a9.06,9.06,0,0,1,.6,3.53c0,.25,0,.64,0,1.2v1.88a.93.93,0,0,1-.41.69l-.46.14h-12.5V237a4.74,4.74,0,0,0,1.19,3.49,3.69,3.69,0,0,0,2.69,1.2h8.76a.83.83,0,0,1,.59.45,1.29,1.29,0,0,1,.19.63,1.51,1.51,0,0,1-.09.37c-.16.32-.33.49-.51.52l-.51.1-8.95-.05a5.67,5.67,0,0,1-3.79-1.88,5.51,5.51,0,0,1-1.59-3.86v-9.23a6.37,6.37,0,0,1,1.15-3.59,8.57,8.57,0,0,1,3-2.71,7.27,7.27,0,0,1,3.53-.82,7.7,7.7,0,0,1,4,1.1A7.82,7.82,0,0,1,236.29,226.28Zm-1.93.82a5.5,5.5,0,0,0-3.38-3.17,6,6,0,0,0-1.79-.27,5.55,5.55,0,0,0-4.16,1.83,7,7,0,0,0-1.56,4.92c0,.55,0,1,.05,1.29h11.3v-2.12A5.94,5.94,0,0,0,234.36,227.1Z"/><path d="M271.33,221.64a1.14,1.14,0,0,1,.65.5l.09.46v3.63a1,1,0,0,1-.48.64,1.41,1.41,0,0,1-.58.14.68.68,0,0,1-.5-.18.9.9,0,0,1-.46-.83v-2.34h-8V243a.94.94,0,0,1-.55.68,1.24,1.24,0,0,1-.41.1,1.17,1.17,0,0,1-.71-.26.91.91,0,0,1-.35-.8V222.33a.75.75,0,0,1,.55-.65l.33,0Z"/><line class="cls-1" x1="71.37" y1="317.8" x2="66.06" y2="351.72"/><line class="cls-1" x1="126.38" y1="317.8" x2="115.78" y2="385.22"/><line class="cls-1" x1="183.35" y1="317.8" x2="172.74" y2="385.22"/><line class="cls-1" x1="238.35" y1="317.8" x2="233.05" y2="351.72"/><path class="cls-1" d="M264.09,171.62c26.32,5.34,46,26.58,46,52,0,29.42-26.41,53.26-59,53.26H60.47c-32.57,0-59-20.92-59-50.34,0-25.15,19.31-46.24,45.28-51.8A39.12,39.12,0,0,1,44.31,161c0-23.68,21.26-42.87,47.48-42.87a50.08,50.08,0,0,1,33.38,12.38h0c11.55-23,37.19-39,67-39,40.59,0,73.51,29.72,73.51,66.38,0,4.71-1.57,13.7-1.57,13.7Z"/><path class="cls-1" d="M216,95.11a76.22,76.22,0,0,1,42.44-21.38c40.34-6.44,78.82,17.87,85.95,54.29,5.9,30.11-11.47,59.08-40.45,71.85"/><line class="cls-1" x1="271.46" y1="27.5" x2="271.27" y2="1.5"/><line class="cls-1" x1="392.96" y1="149.86" x2="421.77" y2="149.69"/><line class="cls-1" x1="363.3" y1="60.65" x2="383.53" y2="42.15"/><line class="cls-1" x1="172.45" y1="60.65" x2="152.21" y2="42.15"/><line class="cls-1" x1="372.25" y1="243.99" x2="352.01" y2="225.47"/></g></g></svg>