<svg xmlns="http://www.w3.org/2000/svg" viewBox="0 0 74.32 56.95"><defs><style>.cls-1{fill:none;stroke:#fff;stroke-linecap:round;stroke-linejoin:round;stroke-width:3px;}</style></defs><g id="Layer_2" data-name="Layer 2"><g id="Layer_1-2" data-name="Layer 1"><path class="cls-1" d="M49.7,35a10.48,10.48,0,0,1,8.44,10.11A10.6,10.6,0,0,1,47.31,55.45h-35c-6,0-10.82-4.07-10.82-9.79A10.47,10.47,0,0,1,9.81,35.58a8.12,8.12,0,0,1-.45-2.66,8.53,8.53,0,0,1,8.71-8.34A8.9,8.9,0,0,1,24.2,27h0a13.54,13.54,0,0,1,12.29-7.58C43.94,19.41,50,25.19,50,32.32A23.44,23.44,0,0,1,49.7,35Z"/><path class="cls-1" d="M53.59,35.52c9.85,0,19.23-7.64,19.23-17.07,0-.08,0-.16,0-.24a13.46,13.46,0,0,1-10.29,4.68c-7.32,0-13.27-5.68-13.27-12.69a12.35,12.35,0,0,1,3.62-8.7C44,2.5,37.13,8.37,37.13,17.11"/></g></g></svg>