<svg xmlns="http://www.w3.org/2000/svg" viewBox="0 0 64.28 65.51"><defs><style>.cls-1{fill:none;stroke-width:3px;}.cls-1,.cls-2{stroke:#fff;stroke-linecap:round;stroke-linejoin:round;}.cls-2{fill:#fff;}</style></defs><g id="Layer_2" data-name="Layer 2"><g id="Layer_1-2" data-name="Layer 1"><path class="cls-1" d="M42.91,29.4a8.79,8.79,0,0,1,7.25,8.42c0,4.76-4.16,8.63-9.29,8.63H10.8c-5.14,0-9.3-3.39-9.3-8.16a8.8,8.8,0,0,1,7.14-8.4,6.5,6.5,0,0,1-.39-2.21,7.23,7.23,0,0,1,7.49-6.95,7.76,7.76,0,0,1,5.26,2h0a11.68,11.68,0,0,1,10.57-6.32c6.4,0,11.59,4.82,11.59,10.76a18.32,18.32,0,0,1-.25,2.22Z"/><path class="cls-1" d="M46.25,29.85c8.47,0,16.53-6.37,16.53-14.23,0-.07,0-.13,0-.2a11.73,11.73,0,0,1-8.84,3.91c-6.29,0-11.4-4.74-11.4-10.58A10.15,10.15,0,0,1,45.64,1.5c-7.61.83-13.52,5.72-13.52,13"/><path class="cls-2" d="M11.6,55.11a2.21,2.21,0,0,1-2.29,2.12,2.13,2.13,0,1,1,0-4.24A2.21,2.21,0,0,1,11.6,55.11Z"/><path class="cls-2" d="M28.12,55.11A2.29,2.29,0,1,1,25.83,53,2.21,2.21,0,0,1,28.12,55.11Z"/><path class="cls-2" d="M44.63,55.11A2.29,2.29,0,1,1,42.35,53,2.2,2.2,0,0,1,44.63,55.11Z"/><path class="cls-2" d="M20,62.89a2.29,2.29,0,1,1-2.29-2.12A2.21,2.21,0,0,1,20,62.89Z"/><path class="cls-2" d="M36.5,62.89a2.29,2.29,0,1,1-2.29-2.12A2.21,2.21,0,0,1,36.5,62.89Z"/></g></g></svg>